<svg height="1024" width="1024" xmlns="http://www.w3.org/2000/svg"><path d="M716.737 124.056c-71.926 41.686-148.04 96.13-218.436 166.555-45 45.032-81.212 88.78-110.39 129.78L209.54 453.35.048 662.997l186.817 5.815L318.427 537.25c-46.44 96.224-50.536 160.02-50.536 160.02l58.855 58.79s65.827-6.254 162.737-53.162l-134.375 134.22 5.88 186.882 209.585-209.52 33.086-179.253c41.403-29.02 85.185-65.046 129.716-109.545C803.8 455.227 858.21 379.142 899.93 307.216c-45.97-9.35-88.126-28.488-121.398-61.668-33.275-33.367-52.538-75.523-61.795-121.492zm69.424-37.213c5.005 45 19.953 81.274 44.78 105.98 24.77 24.985 60.98 39.902 106.14 44.844C1003.062 104.323 1023.952 0 1023.952 0S919.63 20.858 786.16 86.843z"/></svg>