<svg xmlns="http://www.w3.org/2000/svg" width="242" height="42" viewBox="0 0 242 42"><linearGradient id="a" gradientUnits="userSpaceOnUse" x1=".523" y1="21.313" x2="242" y2="21.313"><stop offset=".11" stop-color="#FABA0B"/><stop offset=".152" stop-color="#F9B220"/><stop offset=".404" stop-color="#F08049"/><stop offset=".617" stop-color="#EA5453"/><stop offset=".779" stop-color="#E73354"/><stop offset=".871" stop-color="#E62454"/></linearGradient><path fill="url(#a)" d="M235.207 25.883c-2.126-.41-3.254-.635-3.388-.668-1.785-.48-2.67-1.06-2.67-1.75 0-1.196 1.094-2.015 3.283-2.015 1.404 0 3.422.268 4.62 1.5L242 18.518c-.89-1.162-3.443-2.34-5.565-3.058-1.568-.522-3.084-.797-4.556-.85l.018-.02h-.793c-.003.002-.006 0-.01 0h-.002c-3.013.002-13.495.006-13.68.013-4.61 0-7.972 2.084-10.35 5.21-1.874 1.873-4.4 4.51-7.08 7.065-.276-3.25-1.582-6.04-3.917-8.377-2.653-2.643-5.9-3.968-9.73-3.968-3.835 0-7.086 1.325-9.755 3.97-2.67 2.648-4 5.88-4 9.708 0 2.547.588 4.823 1.742 6.843l-.878-.042c-1.88 0-3.476-.663-4.792-2-1.174-1.19-1.822-2.602-1.947-4.24-.005-.057-.01-.768-.013-1.743h.004V.627h-6.93v21.512c-.022.88-.257 1.583-.686 2.012-.948.948-1.944 1.928-2.96 2.893-.246-3.32-1.55-6.17-3.925-8.543-2.653-2.644-5.9-3.97-9.73-3.97-3.835 0-7.086 1.326-9.755 3.97-.895.888-1.627 1.848-2.22 2.868-2.78 4.16-8.228 12.744-13.814 13.62v-.008l-1.982.004c-1.427-.21-2.682-.84-3.75-1.908-1.337-1.33-2.005-2.932-2.005-4.808s.668-3.467 2.004-4.78c1.328-1.31 2.94-1.97 4.82-1.97 1.99 0 3.652.718 4.98 2.16l4.162-5.565c-2.598-2.348-5.648-3.522-9.14-3.522-3.836 0-7.087 1.325-9.752 3.97-2.67 2.648-4.002 5.88-4.002 9.708 0 2.503.564 4.745 1.677 6.738l-2.748.005c-1.88 0-3.476-.664-4.792-2-1.174-1.19-1.822-2.603-1.947-4.24-.005-.058-.01-.77-.013-1.744h.004V.625h-6.93v21.437c-.01.912-.25 1.64-.69 2.08-.896.896-1.835 1.82-2.793 2.733-.276-3.25-1.582-6.04-3.917-8.376-2.653-2.643-5.9-3.968-9.73-3.968-3.835 0-7.086 1.325-9.755 3.97-1.79 1.775-2.965 3.822-3.554 6.126-.748.743-1.52 1.5-2.306 2.25-.277-3.25-1.583-6.042-3.918-8.378-2.653-2.644-5.9-3.97-9.73-3.97-3.835 0-7.086 1.326-9.755 3.97-1.13 1.122-2.007 2.355-2.658 3.687-3.075 4.628-8.628 12.88-14.178 12.88-1.88 0-3.494-.663-4.822-1.992-1.337-1.33-2.005-2.932-2.005-4.808s.668-3.467 2.005-4.78c1.328-1.31 2.94-1.97 4.82-1.97 1.99 0 3.652.718 4.98 2.16l4.162-5.565c-2.598-2.348-5.648-3.522-9.14-3.522-3.836 0-7.087 1.325-9.752 3.97-2.67 2.648-4.006 5.88-4.006 9.708 0 3.86 1.328 7.114 3.98 9.763 2.65 2.65 5.91 3.97 9.778 3.97 6.045 0 9.983-3.447 13.932-8.232.66 1.538 1.615 2.942 2.88 4.205 2.652 2.648 5.91 3.97 9.78 3.97.07 0 .136-.01.206-.01h.012c.86 0 1.7-.085 2.526-.237.03-.005.057-.013.086-.02 5.054-.965 9.49-4.592 13.49-8.647.656 1.83 1.7 3.482 3.164 4.944 2.653 2.648 5.91 3.97 9.78 3.97.07 0 .137-.01.207-.01h.012c.103 0 .204-.012.307-.014.316-.01.633-.018.94-.047.368-.034.73-.09 1.093-.15.075-.014.154-.02.23-.035 5.602-1.052 10.445-5.384 14.775-9.946.582 2.33 1.754 4.398 3.536 6.2 2.65 2.67 5.882 4 9.71 4h13.477c.44.038.887.06 1.344.06 6.08 0 10.03-3.487 14-8.316.664 1.57 1.63 3.003 2.92 4.288 2.652 2.648 5.91 3.97 9.78 3.97.092 0 .18-.01.274-.013.04.005.077.01.118.013 6.71 0 12.364-4.946 17.343-10.19.584 2.324 1.755 4.39 3.535 6.188 2.648 2.67 5.882 4.003 9.71 4.003h12.962v-.003c.046 0 .09-.005.136-.006h.012c.378 0 .75-.02 1.122-.05l.17-.017c.422-.04.838-.096 1.25-.173h.005c5.787-1.08 10.765-5.657 15.204-10.38V42h6.93V28.27c0-1.88.665-3.477 2.002-4.793 1.19-1.174 2.603-1.82 4.24-1.947.102-.008 2.32-.015 4.4-.02-.08.464-.122.944-.122 1.446 0 3.354 1.56 5.698 4.67 7.035 1.062.444 2.366.824 3.903 1.13 1.23.242 2.034.396 2.413.463.957.343 1.487.907 1.592 1.692v.21c0 .75-.447 1.33-1.337 1.74-.686.31-1.454.465-2.31.465h-.155c-2.085 0-4.053-.873-5.903-2.62l-3.848 4.98c1.195 1.028 2.745 1.884 4.646 2.57 1.897.68 3.65 1.04 5.26 1.078 4.04.1 7.152-1.187 9.346-3.86 1.095-1.34 1.64-2.832 1.64-4.48v-.153c0-4.46-2.155-6.5-6.467-7.322zM45.67 33.018c-1.315 1.33-2.92 1.993-4.8 1.993-1.883 0-3.492-.663-4.825-1.992-1.337-1.33-2-2.932-2-4.808s.663-3.467 2-4.78c1.333-1.31 2.942-1.97 4.826-1.97 1.847 0 3.44.668 4.776 1.996 1.332 1.33 2 2.916 2 4.754 0 1.876-.66 3.48-1.975 4.808zm29.265 0c-1.316 1.33-2.92 1.993-4.8 1.993-1.884 0-3.493-.663-4.826-1.992-1.338-1.33-2.002-2.932-2.002-4.808s.664-3.467 2-4.78c1.334-1.31 2.943-1.97 4.827-1.97 1.846 0 3.438.668 4.775 1.996 1.332 1.33 2 2.916 2 4.754 0 1.876-.66 3.48-1.975 4.808zm72.33 0c-1.316 1.33-2.92 1.993-4.8 1.993-1.884 0-3.493-.663-4.826-1.992-1.338-1.33-2.002-2.932-2.002-4.808s.664-3.467 2-4.78c1.334-1.31 2.943-1.97 4.827-1.97 1.846 0 3.438.668 4.775 1.996 1.332 1.33 2 2.916 2 4.754 0 1.876-.66 3.48-1.975 4.808zm43.87 0c-1.315 1.33-2.92 1.993-4.8 1.993-1.883 0-3.492-.663-4.825-1.992-1.337-1.33-2-2.932-2-4.808s.663-3.467 2-4.78c1.333-1.31 2.942-1.97 4.826-1.97 1.846 0 3.438.668 4.775 1.996 1.333 1.33 2.002 2.916 2.002 4.754 0 1.876-.66 3.48-1.976 4.808z"/></svg>